<svg version="1.1" xmlns="http://www.w3.org/2000/svg" xmlns:xlink="http://www.w3.org/1999/xlink" width="1014" height="538"><defs/><g><g/><g/><g/><g/><g/><g/><g/><g/><g/><g><rect fill="white" stroke="none" x="0" y="0" width="1014" height="538"/></g><g/><g><path fill="none" stroke="black" paint-order="fill stroke markers" d=" M 51.15255821682813 55.049635120999994 L 51.15255821682813 538.5716528009999" stroke-miterlimit="10" stroke-width="1.3612669416666667" stroke-dasharray="12.565541,5.445067766666667"/><path fill="none" stroke="black" paint-order="fill stroke markers" d=" M 361.780255317375 55.049635120999994 L 361.780255317375 538.5716528009999" stroke-miterlimit="10" stroke-width="1.3612669416666667" stroke-dasharray="12.565541,5.445067766666667"/><path fill="none" stroke="black" paint-order="fill stroke markers" d=" M 963.7966094793543 55.049635120999994 L 963.7966094793543 538.5716528009999" stroke-miterlimit="10" stroke-width="1.3612669416666667" stroke-dasharray="12.565541,5.445067766666667"/></g><g><path fill="none" stroke="none"/><g><path fill="white" stroke="black" paint-order="fill stroke markers" d=" M 8.167601650000002 10.944586211000003 L 94.13751478365626 10.944586211000003 L 94.13751478365626 55.049635120999994 L 8.167601650000002 55.049635120999994 L 8.167601650000002 10.944586211000003 Z" stroke-miterlimit="10" stroke-width="2.613632528" stroke-dasharray=""/></g><g><g/><text fill="black" stroke="none" font-family="sans-serif" font-size="11pt" font-style="normal" font-weight="normal" text-decoration="normal" x="25.891297230500008" y="38.71443182099999" text-anchor="start" dominant-baseline="alphabetic">kayttaja</text></g><path fill="none" stroke="none"/><g><path fill="white" stroke="black" paint-order="fill stroke markers" d=" M 324.90481870904296 10.944586211000003 L 398.65569192570706 10.944586211000003 L 398.65569192570706 55.049635120999994 L 324.90481870904296 55.049635120999994 L 324.90481870904296 10.944586211000003 Z" stroke-miterlimit="10" stroke-width="2.613632528" stroke-dasharray=""/></g><g><g/><text fill="black" stroke="none" font-family="sans-serif" font-size="11pt" font-style="normal" font-weight="normal" text-decoration="normal" x="342.628514289543" y="38.71443182099999" text-anchor="start" dominant-baseline="alphabetic">selain</text></g><path fill="none" stroke="none"/><g><path fill="white" stroke="black" paint-order="fill stroke markers" d=" M 921.2160947460222 10.944586211000003 L 1006.3771242126863 10.944586211000003 L 1006.3771242126863 55.049635120999994 L 921.2160947460222 55.049635120999994 L 921.2160947460222 10.944586211000003 Z" stroke-miterlimit="10" stroke-width="2.613632528" stroke-dasharray=""/></g><g><g/><text fill="black" stroke="none" font-family="sans-serif" font-size="11pt" font-style="normal" font-weight="normal" text-decoration="normal" x="938.9397903265223" y="38.71443182099999" text-anchor="start" dominant-baseline="alphabetic">palvelin</text></g></g><g><g><g><rect fill="white" stroke="none" x="204.0161262721016" y="87.720041721" width="4.90056099" height="21.23576429"/></g><text fill="black" stroke="none" font-family="sans-serif" font-size="11pt" font-style="normal" font-weight="normal" text-decoration="normal" x="206.46640676710157" y="102.42172469100001" text-anchor="start" dominant-baseline="alphabetic"></text></g><g><path fill="none" stroke="black" paint-order="fill stroke markers" d=" M 51.15255821682813 108.95580601099999 L 359.0577214340417 108.95580601099999" stroke-miterlimit="10" stroke-width="1.3612669416666667" stroke-dasharray=""/><g transform="translate(361.780255317375,108.95580601099999) rotate(NaN,0,0) translate(-361.780255317375,-108.95580601099999)"><path fill="black" stroke="none" paint-order="stroke fill markers" d=" M 348.16758590070833 102.14947130266665 L 361.780255317375 108.95580601099999 L 348.16758590070833 115.76214071933333 Z"/><g transform="rotate(NaN,0,0)"/></g></g><path fill="white" stroke="black" paint-order="fill stroke markers" d=" M 361.780255317375 160.41169640599998 L 353.612653667375 160.41169640599998 M 59.32015986682814 133.45861096099998 L 338.91097069737503 133.45861096099998 L 353.612653667375 148.16029393099998 L 353.612653667375 187.36478185099998 L 59.32015986682814 187.36478185099998 L 59.32015986682814 133.45861096099998 M 338.91097069737503 133.45861096099998 L 338.91097069737503 148.16029393099998 L 353.612653667375 148.16029393099998" stroke-miterlimit="10" stroke-width="1.3612669416666667" stroke-dasharray=""/><g><text fill="black" stroke="none" font-family="sans-serif" font-size="11pt" font-style="normal" font-weight="normal" text-decoration="normal" x="82.18944448682814" y="156.32789558099995" text-anchor="start" dominant-baseline="alphabetic">käyttäjä kirjoittaa uuden muistiinpanon</text><text fill="black" stroke="none" font-family="sans-serif" font-size="11pt" font-style="normal" font-weight="normal" text-decoration="normal" x="82.18944448682814" y="172.66309888099994" text-anchor="start" dominant-baseline="alphabetic">ja painaa tallenna</text></g><g><g><rect fill="white" stroke="none" x="381.11024588904166" y="211.86758680099996" width="435.9597650915625" height="21.23576429"/></g><g><rect fill="white" stroke="none" x="381.11024588904166" y="228.20279010099995" width="576.9690424353125" height="21.23576429"/></g><text fill="black" stroke="none" font-family="sans-serif" font-size="11pt" font-style="normal" font-weight="normal" text-decoration="normal" x="383.5605263840417" y="226.56926977099994" text-anchor="start" dominant-baseline="alphabetic">selaimessa javascript estää oletusarvoisen lomakkeen lähetyksen,</text><text fill="black" stroke="none" font-family="sans-serif" font-size="11pt" font-style="normal" font-weight="normal" text-decoration="normal" x="383.5605263840417" y="242.90447307099993" text-anchor="start" dominant-baseline="alphabetic">lisää muistiinpanon taulukkoon, piirtää selainnäkymän järjestämättömän listan uudelleen</text></g><g><path fill="none" stroke="black" paint-order="fill stroke markers" d=" M 361.780255317375 249.43855439099997 L 427.121068517375 249.43855439099997 L 427.121068517375 265.77375769099996 L 364.5027892007083 265.77375769099996" stroke-miterlimit="10" stroke-width="1.3612669416666667" stroke-dasharray=""/><g transform="translate(361.780255317375,265.77375769099996) rotate(NaN,0,0) translate(-361.780255317375,-265.77375769099996)"><path fill="black" stroke="none" paint-order="stroke fill markers" d=" M 375.3929247340417 258.9674229826666 L 361.780255317375 265.77375769099996 L 375.3929247340417 272.5800923993333 Z"/><g transform="rotate(NaN,0,0)"/></g></g><g><g><rect fill="white" stroke="none" x="487.9795703603959" y="290.27656264099994" width="349.6177240759375" height="21.23576429"/></g><text fill="black" stroke="none" font-family="sans-serif" font-size="11pt" font-style="normal" font-weight="normal" text-decoration="normal" x="490.4298508553959" y="304.9782456109999" text-anchor="start" dominant-baseline="alphabetic">POST /new_note_spa, Content-type: application/json</text></g><g><path fill="none" stroke="black" paint-order="fill stroke markers" d=" M 361.780255317375 311.51232693099996 L 961.074075596021 311.51232693099996" stroke-miterlimit="10" stroke-width="1.3612669416666667" stroke-dasharray=""/><g transform="translate(963.7966094793543,311.51232693099996) rotate(NaN,0,0) translate(-963.7966094793543,-311.51232693099996)"><path fill="black" stroke="none" paint-order="stroke fill markers" d=" M 950.1839400626876 304.7059922226666 L 963.7966094793543 311.51232693099996 L 950.1839400626876 318.3186616393333 Z"/><g transform="rotate(NaN,0,0)"/></g></g><path fill="white" stroke="black" paint-order="fill stroke markers" d=" M 963.7966094793543 354.80061567599995 L 955.6290078293542 354.80061567599995 M 631.1647305815418 336.01513188099995 L 940.9273248593544 336.01513188099995 L 955.6290078293544 350.7168148509999 L 955.6290078293544 373.58609947099995 L 631.1647305815418 373.58609947099995 L 631.1647305815418 336.01513188099995 M 940.9273248593544 336.01513188099995 L 940.9273248593544 350.7168148509999 L 955.6290078293544 350.7168148509999" stroke-miterlimit="10" stroke-width="1.3612669416666667" stroke-dasharray=""/><g><text fill="black" stroke="none" font-family="sans-serif" font-size="11pt" font-style="normal" font-weight="normal" text-decoration="normal" x="654.0340152015417" y="358.8844165009999" text-anchor="start" dominant-baseline="alphabetic">palvelin tallentaa muistiinpanon taulukkoon</text></g><g><g><rect fill="white" stroke="none" x="589.8478488638139" y="398.08890442099994" width="145.88116706910156" height="21.23576429"/></g><text fill="black" stroke="none" font-family="sans-serif" font-size="11pt" font-style="normal" font-weight="normal" text-decoration="normal" x="592.2981293588139" y="412.7905873909999" text-anchor="start" dominant-baseline="alphabetic">Success, 201 created</text></g><g><path fill="none" stroke="black" paint-order="fill stroke markers" d=" M 963.7966094793543 419.32466871099996 L 364.5027892007083 419.32466871099996" stroke-miterlimit="10" stroke-width="1.3612669416666667" stroke-dasharray=""/><g transform="translate(361.780255317375,419.32466871099996) rotate(NaN,0,0) translate(-361.780255317375,-419.32466871099996)"><path fill="black" stroke="none" paint-order="stroke fill markers" d=" M 375.3929247340417 412.5183340026666 L 361.780255317375 419.32466871099996 L 375.3929247340417 426.1310034193333 Z"/><g transform="rotate(NaN,0,0)"/></g></g><path fill="white" stroke="black" paint-order="fill stroke markers" d=" M 361.780255317375 462.61295745599995 L 353.612653667375 462.61295745599995 M 104.9608001256172 443.82747366099994 L 338.91097069737503 443.82747366099994 L 353.612653667375 458.5291566309999 L 353.612653667375 481.39844125099995 L 104.9608001256172 481.39844125099995 L 104.9608001256172 443.82747366099994 M 338.91097069737503 443.82747366099994 L 338.91097069737503 458.5291566309999 L 353.612653667375 458.5291566309999" stroke-miterlimit="10" stroke-width="1.3612669416666667" stroke-dasharray=""/><g><text fill="black" stroke="none" font-family="sans-serif" font-size="11pt" font-style="normal" font-weight="normal" text-decoration="normal" x="127.8300847456172" y="466.6967582809999" text-anchor="start" dominant-baseline="alphabetic">console.log palvelimen vastaus</text></g></g><g/><g/><g/></g></svg>